<svg xmlns="http://www.w3.org/2000/svg" id="prefix__Group_7" width="450.946" height="60.422" data-name="Group 7" viewBox="0 0 450.946 60.422">
    <defs>
        <style>
            .prefix__cls-1{fill:#4d4d4d}.prefix__cls-2{fill:#ef61a3}
        </style>
    </defs>
    <g id="prefix__Group_5" data-name="Group 5">
        <path id="prefix__Path_31" d="M-989.349 467.657l3.47-16.311H-984l-3.47 16.311z" class="prefix__cls-1" data-name="Path 31" transform="translate(989.349 -450.175)"/>
        <path id="prefix__Path_32" d="M-984.375 472.778a3.931 3.931 0 0 1-1.395-.234v-1.573a3.922 3.922 0 0 0 1.249.245 1.474 1.474 0 0 0 1.305-.692 5.92 5.92 0 0 0 .737-1.975l2.532-12.071h-2.153l.145-.748 2.3-.736.256-1.115a6.606 6.606 0 0 1 1.423-3.152 3.628 3.628 0 0 1 2.694-.92 5.8 5.8 0 0 1 1.093.128 5.051 5.051 0 0 1 1 .285l-.479 1.439a4.354 4.354 0 0 0-1.528-.323 1.967 1.967 0 0 0-1.49.541 4.3 4.3 0 0 0-.843 1.98l-.279 1.206h2.655l-.279 1.417h-2.644l-2.588 12.25a6.383 6.383 0 0 1-1.336 3.077 3.093 3.093 0 0 1-2.375.971z" class="prefix__cls-1" data-name="Path 32" transform="translate(988.493 -449.807)"/>
        <path id="prefix__Path_33" d="M-964.809 456.714h1.875l.825 6.079q.112.77.218 2.27t.106 2.416h.067q.39-.97.971-2.231t.859-1.741l3.626-6.794h1.986l-7.765 14.3a8.053 8.053 0 0 1-2.053 2.667 4.005 4.005 0 0 1-2.443.747 5.246 5.246 0 0 1-1.562-.234v-1.503a5.294 5.294 0 0 0 1.461.2 2.318 2.318 0 0 0 1.568-.564 6.134 6.134 0 0 0 1.266-1.668l.847-1.517z" class="prefix__cls-1" data-name="Path 33" transform="translate(984.266 -451.459)"/>
        <path id="prefix__Path_34" d="M-943.821 456.508a4.466 4.466 0 0 1 3.347 1.255 4.726 4.726 0 0 1 1.227 3.453 9.9 9.9 0 0 1-.8 3.961 6.845 6.845 0 0 1-2.175 2.878 5.084 5.084 0 0 1-3.1 1.016 4.447 4.447 0 0 1-3.358-1.261 4.756 4.756 0 0 1-1.216-3.447 9.871 9.871 0 0 1 .814-3.989 6.759 6.759 0 0 1 2.2-2.867 5.116 5.116 0 0 1 3.061-.999zm2.633 4.451a3.048 3.048 0 0 0-.7-2.081 2.384 2.384 0 0 0-1.891-.8 3.265 3.265 0 0 0-2.181.825 5.317 5.317 0 0 0-1.495 2.292 9.567 9.567 0 0 0-.53 3.264 3.29 3.29 0 0 0 .708 2.259 2.58 2.58 0 0 0 2.036.8 3.074 3.074 0 0 0 2.086-.815 5.316 5.316 0 0 0 1.446-2.315 10.482 10.482 0 0 0 .521-3.429z" class="prefix__cls-1" data-name="Path 34" transform="translate(979.913 -451.41)"/>
        <path id="prefix__Path_35" d="M-929.062 456.714l-1.673 7.753a8.361 8.361 0 0 0-.2 1.551 1.43 1.43 0 0 0 1.64 1.6 3.314 3.314 0 0 0 1.93-.669 5.948 5.948 0 0 0 1.674-1.919 10.307 10.307 0 0 0 1.1-3.012l1.115-5.3h1.852l-2.577 12.227h-1.55l.245-2.265h-.134a7.315 7.315 0 0 1-2.086 1.941 4.2 4.2 0 0 1-2.053.547 3.118 3.118 0 0 1-2.242-.775 2.91 2.91 0 0 1-.815-2.215 10.414 10.414 0 0 1 .246-1.919l1.629-7.541z" class="prefix__cls-1" data-name="Path 35" transform="translate(975.83 -451.459)"/>
        <path id="prefix__Path_36" d="M-901.014 467.327l1.651-7.72a9.165 9.165 0 0 0 .2-1.506 1.455 1.455 0 0 0-1.64-1.652 3.343 3.343 0 0 0-1.935.659 5.791 5.791 0 0 0-1.662 1.913 10.267 10.267 0 0 0-1.088 3.029l-1.127 5.277h-1.874l3.681-17.359h1.874q-.2.914-.384 1.774t-.38 1.745q-.2.888-.424 1.858t-.53 2.108h.123a7.445 7.445 0 0 1 2.07-1.964 4.2 4.2 0 0 1 2.136-.59 3.041 3.041 0 0 1 2.259.8 3.092 3.092 0 0 1 .8 2.276 9.009 9.009 0 0 1-.257 1.852q-.435 2.154-1.617 7.5z" class="prefix__cls-1" data-name="Path 36" transform="translate(970.007 -449.846)"/>
        <path id="prefix__Path_37" d="M-884.549 456.42a3.153 3.153 0 0 1 1.83.552 3.584 3.584 0 0 1 1.249 1.59h.123l.747-1.919h1.417l-2.6 12.227h-1.484l.291-2.331h-.09q-2 2.554-4.206 2.555a2.94 2.94 0 0 1-2.432-1.1 4.723 4.723 0 0 1-.881-3.023 11.52 11.52 0 0 1 .792-4.306 7.435 7.435 0 0 1 2.187-3.113 4.753 4.753 0 0 1 3.057-1.132zm-2.12 11.123a3.137 3.137 0 0 0 2.153-1.032 7.652 7.652 0 0 0 1.741-2.689 8.811 8.811 0 0 0 .669-3.319 2.6 2.6 0 0 0-.625-1.83 2.122 2.122 0 0 0-1.64-.681 3.072 3.072 0 0 0-2.159.96 6.468 6.468 0 0 0-1.567 2.6 10.471 10.471 0 0 0-.569 3.459 2.924 2.924 0 0 0 .524 1.9 1.809 1.809 0 0 0 1.474.632z" class="prefix__cls-1" data-name="Path 37" transform="translate(965.724 -451.389)"/>
        <path id="prefix__Path_38" d="M-872.223 468.941l-1.395-12.227h1.875l.714 6.839q.267 2.878.267 4.038h.067q1.417-3.069 2-4.139l3.626-6.738h1.986l-6.593 12.227z" class="prefix__cls-1" data-name="Path 38" transform="translate(961.665 -451.459)"/>
        <path id="prefix__Path_39" d="M-855.35 469.094a4.269 4.269 0 0 1-3.224-1.216 4.658 4.658 0 0 1-1.171-3.37 10.043 10.043 0 0 1 .831-4.021 7.444 7.444 0 0 1 2.2-3 4.8 4.8 0 0 1 3.023-1.071 3.835 3.835 0 0 1 2.566.742 2.588 2.588 0 0 1 .859 2.069 3.536 3.536 0 0 1-1.852 3.152 10.144 10.144 0 0 1-5.3 1.143h-.368l-.044.893a3.452 3.452 0 0 0 .686 2.281 2.613 2.613 0 0 0 2.125.82 5.514 5.514 0 0 0 1.445-.2 11 11 0 0 0 1.846-.736v1.629a10.056 10.056 0 0 1-1.852.686 7.514 7.514 0 0 1-1.77.199zm1.551-11.079a2.982 2.982 0 0 0-2.159 1.049 6.843 6.843 0 0 0-1.545 2.912h.134a9.1 9.1 0 0 0 3.9-.664 2.082 2.082 0 0 0 1.356-1.924 1.3 1.3 0 0 0-.407-.982 1.794 1.794 0 0 0-1.28-.391z" class="prefix__cls-1" data-name="Path 39" transform="translate(958.347 -451.389)"/>
        <path id="prefix__Path_40" d="M-831.1 456.42a3.155 3.155 0 0 1 1.83.552 3.591 3.591 0 0 1 1.249 1.59h.122l.748-1.919h1.417l-2.6 12.227h-1.484l.29-2.331h-.089q-2 2.554-4.206 2.555a2.938 2.938 0 0 1-2.432-1.1 4.718 4.718 0 0 1-.882-3.023 11.516 11.516 0 0 1 .792-4.306 7.426 7.426 0 0 1 2.187-3.113 4.752 4.752 0 0 1 3.058-1.132zm-2.12 11.123a3.137 3.137 0 0 0 2.153-1.032 7.637 7.637 0 0 0 1.741-2.689 8.793 8.793 0 0 0 .67-3.319 2.6 2.6 0 0 0-.625-1.83 2.123 2.123 0 0 0-1.64-.681 3.069 3.069 0 0 0-2.158.96 6.466 6.466 0 0 0-1.568 2.6 10.492 10.492 0 0 0-.569 3.459 2.925 2.925 0 0 0 .524 1.9 1.809 1.809 0 0 0 1.475.632z" class="prefix__cls-1" data-name="Path 40" transform="translate(952.938 -451.389)"/>
        <path id="prefix__Path_41" d="M-813.263 468.87l1.651-7.72a10.157 10.157 0 0 0 .224-1.607 1.583 1.583 0 0 0-.4-1.127 1.66 1.66 0 0 0-1.266-.425 3.308 3.308 0 0 0-1.936.67 5.956 5.956 0 0 0-1.662 1.907 10.037 10.037 0 0 0-1.087 3l-1.127 5.3h-1.874l2.61-12.227h1.551l-.246 2.264h.112a7.432 7.432 0 0 1 2.069-1.924 4.155 4.155 0 0 1 2.069-.564 3.123 3.123 0 0 1 2.238.775 2.844 2.844 0 0 1 .819 2.171 9.15 9.15 0 0 1-.256 2.008l-1.6 7.5z" class="prefix__cls-1" data-name="Path 41" transform="translate(949.016 -451.389)"/>
        <path id="prefix__Path_42" d="M-803.868 456.714h1.874l.826 6.079q.111.77.218 2.27t.106 2.416h.067q.39-.97.971-2.231t.859-1.741l3.626-6.794h1.986l-7.765 14.3a8.065 8.065 0 0 1-2.053 2.667 4 4 0 0 1-2.443.747 5.247 5.247 0 0 1-1.562-.234v-1.503a5.3 5.3 0 0 0 1.462.2 2.315 2.315 0 0 0 1.567-.564 6.116 6.116 0 0 0 1.267-1.668l.848-1.517z" class="prefix__cls-1" data-name="Path 42" transform="translate(945.768 -451.459)"/>
        <path id="prefix__Path_43" d="M-775.1 456.42a3.115 3.115 0 0 1 1.846.564 3.472 3.472 0 0 1 1.211 1.579h.145l.748-1.919h1.395l-3.748 17.716h-1.853l1.127-5.355q.1-.5.635-2.465h-.089a7.97 7.97 0 0 1-2.064 1.951 3.976 3.976 0 0 1-2.075.6 2.986 2.986 0 0 1-2.448-1.088 4.681 4.681 0 0 1-.887-3.04 11.6 11.6 0 0 1 .809-4.374 7.274 7.274 0 0 1 2.187-3.09 4.836 4.836 0 0 1 3.061-1.079zm-2.142 11.123a3.175 3.175 0 0 0 2.12-1.026 7.542 7.542 0 0 0 1.768-2.645 8.6 8.6 0 0 0 .676-3.346 2.68 2.68 0 0 0-.608-1.853 2.166 2.166 0 0 0-1.7-.681 3.009 3.009 0 0 0-2.108.943 6.521 6.521 0 0 0-1.562 2.6 10.433 10.433 0 0 0-.58 3.475q-.004 2.534 1.993 2.533z" class="prefix__cls-1" data-name="Path 43" transform="translate(939.548 -451.389)"/>
        <path id="prefix__Path_44" d="M-759.835 456.714l-1.674 7.753a8.357 8.357 0 0 0-.2 1.551 1.43 1.43 0 0 0 1.64 1.6 3.315 3.315 0 0 0 1.93-.669 5.946 5.946 0 0 0 1.673-1.919 10.286 10.286 0 0 0 1.1-3.012l1.115-5.3h1.853l-2.578 12.227h-1.551l.246-2.265h-.134a7.329 7.329 0 0 1-2.087 1.941 4.2 4.2 0 0 1-2.053.547 3.118 3.118 0 0 1-2.242-.775 2.913 2.913 0 0 1-.815-2.215 10.479 10.479 0 0 1 .246-1.919l1.629-7.541z" class="prefix__cls-1" data-name="Path 44" transform="translate(935.349 -451.459)"/>
        <path id="prefix__Path_45" d="M-742.1 469.094a4.268 4.268 0 0 1-3.224-1.216 4.658 4.658 0 0 1-1.172-3.37 10.032 10.032 0 0 1 .831-4.021 7.442 7.442 0 0 1 2.2-3 4.8 4.8 0 0 1 3.023-1.071 3.836 3.836 0 0 1 2.566.742 2.588 2.588 0 0 1 .859 2.069 3.537 3.537 0 0 1-1.852 3.152 10.144 10.144 0 0 1-5.3 1.143h-.368l-.045.893a3.454 3.454 0 0 0 .686 2.281 2.617 2.617 0 0 0 2.126.82 5.513 5.513 0 0 0 1.445-.2 11.028 11.028 0 0 0 1.846-.736v1.629a10.071 10.071 0 0 1-1.852.686 7.514 7.514 0 0 1-1.769.199zm1.55-11.079a2.982 2.982 0 0 0-2.158 1.049 6.843 6.843 0 0 0-1.545 2.912h.134a9.1 9.1 0 0 0 3.9-.664 2.082 2.082 0 0 0 1.356-1.924 1.3 1.3 0 0 0-.408-.982 1.792 1.792 0 0 0-1.276-.391z" class="prefix__cls-1" data-name="Path 45" transform="translate(931.256 -451.389)"/>
        <path id="prefix__Path_46" d="M-724.891 465.4a3.272 3.272 0 0 1-1.232 2.717 5.477 5.477 0 0 1-3.475.976 7.411 7.411 0 0 1-3.4-.77v-1.763a6.98 6.98 0 0 0 1.685.725 6.147 6.147 0 0 0 1.673.256 3.4 3.4 0 0 0 2.12-.558 1.735 1.735 0 0 0 .714-1.428 1.546 1.546 0 0 0-.39-1.071 7.882 7.882 0 0 0-1.685-1.194 6.779 6.779 0 0 1-2.053-1.6 2.942 2.942 0 0 1-.6-1.852 3.078 3.078 0 0 1 1.126-2.482 4.474 4.474 0 0 1 2.968-.943 8.638 8.638 0 0 1 3.682.825l-.6 1.528-.625-.279a6.2 6.2 0 0 0-2.454-.479 2.492 2.492 0 0 0-1.629.485 1.548 1.548 0 0 0-.591 1.255 1.555 1.555 0 0 0 .4 1.071 6.95 6.95 0 0 0 1.634 1.15 9.548 9.548 0 0 1 1.713 1.149 3.334 3.334 0 0 1 .775 1.032 2.918 2.918 0 0 1 .244 1.25z" class="prefix__cls-1" data-name="Path 46" transform="translate(928.029 -451.389)"/>
        <path id="prefix__Path_47" d="M-715.536 466.752a6.009 6.009 0 0 0 1.606-.291v1.439a5.125 5.125 0 0 1-.937.268 4.784 4.784 0 0 1-.892.112 3.1 3.1 0 0 1-2.137-.664 2.521 2.521 0 0 1-.742-1.98 8.072 8.072 0 0 1 .2-1.673l1.417-6.716h-1.919l.157-.815 2.063-.87 1.4-2.543h1.093l-.614 2.812h3.057l-.29 1.417h-3.045l-1.439 6.738a7.927 7.927 0 0 0-.2 1.472 1.326 1.326 0 0 0 .323.959 1.2 1.2 0 0 0 .899.335z" class="prefix__cls-1" data-name="Path 47" transform="translate(924.665 -450.575)"/>
        <path id="prefix__Path_48" d="M-707.782 467.513h-1.874l2.61-12.227h1.875zm1.261-15.351a1.466 1.466 0 0 1 .358-1.021 1.19 1.19 0 0 1 .926-.4.878.878 0 0 1 .981 1 1.513 1.513 0 0 1-.373 1.038 1.125 1.125 0 0 1-.864.424 1.029 1.029 0 0 1-.737-.274 1.011 1.011 0 0 1-.292-.767z" class="prefix__cls-1" data-name="Path 48" transform="translate(922.444 -450.031)"/>
        <path id="prefix__Path_49" d="M-695.378 456.508a4.466 4.466 0 0 1 3.347 1.255 4.726 4.726 0 0 1 1.227 3.453 9.9 9.9 0 0 1-.8 3.961 6.842 6.842 0 0 1-2.176 2.878 5.08 5.08 0 0 1-3.1 1.016 4.446 4.446 0 0 1-3.358-1.261 4.756 4.756 0 0 1-1.216-3.447 9.872 9.872 0 0 1 .815-3.989 6.754 6.754 0 0 1 2.2-2.867 5.116 5.116 0 0 1 3.061-.999zm2.632 4.451a3.047 3.047 0 0 0-.7-2.081 2.384 2.384 0 0 0-1.891-.8 3.263 3.263 0 0 0-2.181.825 5.315 5.315 0 0 0-1.495 2.292 9.562 9.562 0 0 0-.53 3.264 3.29 3.29 0 0 0 .708 2.259 2.581 2.581 0 0 0 2.036.8 3.074 3.074 0 0 0 2.086-.815 5.309 5.309 0 0 0 1.445-2.315 10.461 10.461 0 0 0 .522-3.429z" class="prefix__cls-1" data-name="Path 49" transform="translate(920.484 -451.41)"/>
        <path id="prefix__Path_50" d="M-677.706 468.87l1.651-7.72a10.15 10.15 0 0 0 .224-1.607 1.583 1.583 0 0 0-.4-1.127 1.66 1.66 0 0 0-1.266-.425 3.306 3.306 0 0 0-1.936.67 5.955 5.955 0 0 0-1.662 1.907 10.039 10.039 0 0 0-1.087 3l-1.127 5.3h-1.874l2.61-12.227h1.551l-.246 2.264h.112a7.434 7.434 0 0 1 2.069-1.924 4.154 4.154 0 0 1 2.069-.564 3.121 3.121 0 0 1 2.237.775 2.842 2.842 0 0 1 .82 2.171 9.139 9.139 0 0 1-.256 2.008l-1.6 7.5z" class="prefix__cls-1" data-name="Path 50" transform="translate(916.59 -451.389)"/>
        <path id="prefix__Path_51" d="M-660.485 465.4a3.272 3.272 0 0 1-1.232 2.717 5.478 5.478 0 0 1-3.475.976 7.409 7.409 0 0 1-3.4-.77v-1.763a6.96 6.96 0 0 0 1.684.725 6.156 6.156 0 0 0 1.674.256 3.4 3.4 0 0 0 2.12-.558 1.734 1.734 0 0 0 .714-1.428 1.543 1.543 0 0 0-.391-1.071 7.87 7.87 0 0 0-1.684-1.194 6.769 6.769 0 0 1-2.053-1.6 2.942 2.942 0 0 1-.6-1.852 3.079 3.079 0 0 1 1.127-2.482 4.473 4.473 0 0 1 2.968-.943 8.632 8.632 0 0 1 3.681.825l-.6 1.528-.625-.279a6.208 6.208 0 0 0-2.454-.479 2.492 2.492 0 0 0-1.629.485 1.548 1.548 0 0 0-.591 1.255 1.558 1.558 0 0 0 .4 1.071 6.961 6.961 0 0 0 1.635 1.15 9.5 9.5 0 0 1 1.712 1.149 3.324 3.324 0 0 1 .776 1.032 2.918 2.918 0 0 1 .243 1.25z" class="prefix__cls-1" data-name="Path 51" transform="translate(912.622 -451.389)"/>
        <path id="prefix__Path_52" d="M-642.122 469.1a3.277 3.277 0 0 1-1.9-.558 3.623 3.623 0 0 1-1.261-1.563h-.112l-.044.425q-.034.278-.118.781t-1.277 6.181h-1.852l3.748-17.716h1.551l-.291 2.331h.09q2-2.532 4.15-2.532a2.934 2.934 0 0 1 2.409 1.087 4.727 4.727 0 0 1 .882 3.052 11.843 11.843 0 0 1-.77 4.34 7.2 7.2 0 0 1-2.126 3.072 4.773 4.773 0 0 1-3.079 1.1zm2.075-11.1a3.225 3.225 0 0 0-2.18 1.061 7.555 7.555 0 0 0-1.763 2.667 8.677 8.677 0 0 0-.652 3.29 2.625 2.625 0 0 0 .619 1.88 2.351 2.351 0 0 0 1.79.653 2.952 2.952 0 0 0 2.059-.9 6.341 6.341 0 0 0 1.534-2.572 10.712 10.712 0 0 0 .58-3.541q-.001-2.538-1.987-2.538z" class="prefix__cls-1" data-name="Path 52" transform="translate(907.859 -451.396)"/>
        <path id="prefix__Path_53" d="M-628.008 467.327h-1.874l3.7-17.359h1.875z" class="prefix__cls-1" data-name="Path 53" transform="translate(903.362 -449.846)"/>
        <path id="prefix__Path_54" d="M-617.259 469.094a4.27 4.27 0 0 1-3.225-1.216 4.658 4.658 0 0 1-1.171-3.37 10.044 10.044 0 0 1 .831-4.021 7.436 7.436 0 0 1 2.2-3 4.8 4.8 0 0 1 3.023-1.071 3.835 3.835 0 0 1 2.566.742 2.587 2.587 0 0 1 .859 2.069 3.536 3.536 0 0 1-1.852 3.152 10.144 10.144 0 0 1-5.3 1.143h-.367l-.045.893a3.453 3.453 0 0 0 .686 2.281 2.614 2.614 0 0 0 2.125.82 5.514 5.514 0 0 0 1.445-.2 11.03 11.03 0 0 0 1.847-.736v1.629a10.078 10.078 0 0 1-1.852.686 7.512 7.512 0 0 1-1.77.199zm1.551-11.079a2.982 2.982 0 0 0-2.159 1.049 6.842 6.842 0 0 0-1.545 2.912h.134a9.1 9.1 0 0 0 3.9-.664 2.082 2.082 0 0 0 1.356-1.924 1.3 1.3 0 0 0-.407-.982 1.794 1.794 0 0 0-1.28-.391z" class="prefix__cls-1" data-name="Path 54" transform="translate(901.394 -451.389)"/>
        <path id="prefix__Path_55" d="M-600.809 456.42a3.153 3.153 0 0 1 1.83.552 3.585 3.585 0 0 1 1.249 1.59h.123l.747-1.919h1.417l-2.6 12.227h-1.484l.291-2.331h-.09q-2 2.554-4.206 2.555a2.94 2.94 0 0 1-2.432-1.1 4.722 4.722 0 0 1-.881-3.023 11.5 11.5 0 0 1 .792-4.306 7.434 7.434 0 0 1 2.187-3.113 4.753 4.753 0 0 1 3.057-1.132zm-2.12 11.123a3.139 3.139 0 0 0 2.153-1.032 7.649 7.649 0 0 0 1.74-2.689 8.8 8.8 0 0 0 .67-3.319 2.6 2.6 0 0 0-.625-1.83 2.122 2.122 0 0 0-1.64-.681 3.072 3.072 0 0 0-2.158.96 6.468 6.468 0 0 0-1.567 2.6 10.471 10.471 0 0 0-.569 3.459 2.92 2.92 0 0 0 .524 1.9 1.807 1.807 0 0 0 1.473.632z" class="prefix__cls-1" data-name="Path 55" transform="translate(897.851 -451.389)"/>
        <path id="prefix__Path_56" d="M-583.087 465.4a3.272 3.272 0 0 1-1.232 2.717 5.476 5.476 0 0 1-3.475.976 7.411 7.411 0 0 1-3.4-.77v-1.763a6.977 6.977 0 0 0 1.685.725 6.146 6.146 0 0 0 1.673.256 3.4 3.4 0 0 0 2.12-.558 1.735 1.735 0 0 0 .714-1.428 1.546 1.546 0 0 0-.39-1.071 7.883 7.883 0 0 0-1.685-1.194 6.781 6.781 0 0 1-2.053-1.6 2.943 2.943 0 0 1-.6-1.852 3.076 3.076 0 0 1 1.127-2.482 4.47 4.47 0 0 1 2.967-.943 8.639 8.639 0 0 1 3.682.825l-.6 1.528-.625-.279a6.205 6.205 0 0 0-2.454-.479 2.492 2.492 0 0 0-1.629.485 1.548 1.548 0 0 0-.591 1.255 1.558 1.558 0 0 0 .4 1.071 6.971 6.971 0 0 0 1.634 1.15 9.549 9.549 0 0 1 1.712 1.149 3.333 3.333 0 0 1 .775 1.032 2.916 2.916 0 0 1 .245 1.25z" class="prefix__cls-1" data-name="Path 56" transform="translate(894.108 -451.389)"/>
        <path id="prefix__Path_57" d="M-572.621 469.094a4.27 4.27 0 0 1-3.225-1.216 4.658 4.658 0 0 1-1.171-3.37 10.041 10.041 0 0 1 .831-4.021 7.436 7.436 0 0 1 2.2-3 4.8 4.8 0 0 1 3.023-1.071 3.836 3.836 0 0 1 2.566.742 2.588 2.588 0 0 1 .859 2.069 3.536 3.536 0 0 1-1.852 3.152 10.144 10.144 0 0 1-5.3 1.143h-.367l-.045.893a3.454 3.454 0 0 0 .686 2.281 2.614 2.614 0 0 0 2.125.82 5.513 5.513 0 0 0 1.445-.2 11.028 11.028 0 0 0 1.847-.736v1.629a10.075 10.075 0 0 1-1.853.686 7.512 7.512 0 0 1-1.769.199zm1.551-11.079a2.982 2.982 0 0 0-2.159 1.049 6.843 6.843 0 0 0-1.545 2.912h.134a9.1 9.1 0 0 0 3.9-.664 2.082 2.082 0 0 0 1.356-1.924 1.3 1.3 0 0 0-.407-.982 1.794 1.794 0 0 0-1.28-.391z" class="prefix__cls-1" data-name="Path 57" transform="translate(890.716 -451.389)"/>
        <path id="prefix__Path_58" d="M-547.246 456.42a5.088 5.088 0 0 1 1.339.156l-.4 1.674a4.9 4.9 0 0 0-1.172-.145 3.1 3.1 0 0 0-1.9.669 5.858 5.858 0 0 0-1.55 1.858 9.426 9.426 0 0 0-.976 2.638l-1.194 5.6h-1.875l2.61-12.227h1.551l-.246 2.264h.112a10.936 10.936 0 0 1 1.328-1.522 4.2 4.2 0 0 1 1.1-.714 3.16 3.16 0 0 1 1.273-.251z" class="prefix__cls-1" data-name="Path 58" transform="translate(885.444 -451.389)"/>
        <path id="prefix__Path_59" d="M-538.116 469.094a4.267 4.267 0 0 1-3.224-1.216 4.655 4.655 0 0 1-1.172-3.37 10.031 10.031 0 0 1 .831-4.021 7.428 7.428 0 0 1 2.2-3 4.8 4.8 0 0 1 3.023-1.071 3.835 3.835 0 0 1 2.565.742 2.588 2.588 0 0 1 .859 2.069 3.536 3.536 0 0 1-1.852 3.152 10.139 10.139 0 0 1-5.3 1.143h-.368l-.045.893a3.453 3.453 0 0 0 .686 2.281 2.615 2.615 0 0 0 2.126.82 5.508 5.508 0 0 0 1.444-.2 11 11 0 0 0 1.847-.736v1.629a10.077 10.077 0 0 1-1.853.686 7.512 7.512 0 0 1-1.767.199zm1.551-11.079a2.982 2.982 0 0 0-2.159 1.049 6.843 6.843 0 0 0-1.544 2.912h.133a9.106 9.106 0 0 0 3.9-.664 2.083 2.083 0 0 0 1.355-1.924 1.3 1.3 0 0 0-.407-.982 1.792 1.792 0 0 0-1.279-.391z" class="prefix__cls-1" data-name="Path 59" transform="translate(882.462 -451.389)"/>
        <path id="prefix__Path_60" d="M-521.666 456.42a3.153 3.153 0 0 1 1.83.552 3.585 3.585 0 0 1 1.249 1.59h.123l.747-1.919h1.417l-2.6 12.227h-1.484l.291-2.331h-.09q-2 2.554-4.206 2.555a2.94 2.94 0 0 1-2.432-1.1 4.723 4.723 0 0 1-.881-3.023 11.517 11.517 0 0 1 .792-4.306 7.434 7.434 0 0 1 2.186-3.113 4.754 4.754 0 0 1 3.058-1.132zm-2.12 11.123a3.137 3.137 0 0 0 2.153-1.032 7.649 7.649 0 0 0 1.741-2.689 8.809 8.809 0 0 0 .669-3.319 2.6 2.6 0 0 0-.625-1.83 2.122 2.122 0 0 0-1.639-.681 3.072 3.072 0 0 0-2.159.96 6.468 6.468 0 0 0-1.567 2.6 10.474 10.474 0 0 0-.569 3.459 2.925 2.925 0 0 0 .524 1.9 1.809 1.809 0 0 0 1.473.632z" class="prefix__cls-1" data-name="Path 60" transform="translate(878.919 -451.389)"/>
        <path id="prefix__Path_61" d="M-506.183 469.094a4.54 4.54 0 0 1-3.357-1.194 4.554 4.554 0 0 1-1.194-3.37 10.144 10.144 0 0 1 .826-4.117 6.976 6.976 0 0 1 2.281-2.94 5.448 5.448 0 0 1 3.274-1.054 8.164 8.164 0 0 1 2.99.569l-.524 1.573a6.308 6.308 0 0 0-2.443-.57 3.493 3.493 0 0 0-2.282.854 5.618 5.618 0 0 0-1.618 2.376 9.14 9.14 0 0 0-.585 3.308 3.117 3.117 0 0 0 .742 2.22 2.665 2.665 0 0 0 2.047.792 5.045 5.045 0 0 0 1.517-.223 13.986 13.986 0 0 0 1.406-.524v1.595a6.69 6.69 0 0 1-3.08.705z" class="prefix__cls-1" data-name="Path 61" transform="translate(874.861 -451.389)"/>
        <path id="prefix__Path_62" d="M-490.311 467.327l1.651-7.72a9.092 9.092 0 0 0 .2-1.506 1.455 1.455 0 0 0-1.64-1.652 3.343 3.343 0 0 0-1.935.659 5.785 5.785 0 0 0-1.663 1.913 10.267 10.267 0 0 0-1.087 3.029l-1.127 5.277h-1.875l3.681-17.359h1.875q-.2.914-.385 1.774t-.38 1.745q-.2.888-.424 1.858t-.53 2.108h.122a7.444 7.444 0 0 1 2.069-1.964 4.2 4.2 0 0 1 2.136-.59 3.043 3.043 0 0 1 2.26.8 3.091 3.091 0 0 1 .8 2.276 9.054 9.054 0 0 1-.256 1.852q-.435 2.154-1.617 7.5z" class="prefix__cls-1" data-name="Path 62" transform="translate(871.763 -449.846)"/>
        <path id="prefix__Path_63" d="M-466 456.508a4.466 4.466 0 0 1 3.347 1.255 4.726 4.726 0 0 1 1.227 3.453 9.9 9.9 0 0 1-.8 3.961 6.847 6.847 0 0 1-2.175 2.878 5.084 5.084 0 0 1-3.1 1.016 4.447 4.447 0 0 1-3.358-1.261 4.756 4.756 0 0 1-1.216-3.447 9.872 9.872 0 0 1 .814-3.989 6.76 6.76 0 0 1 2.2-2.867 5.116 5.116 0 0 1 3.061-.999zm2.633 4.451a3.048 3.048 0 0 0-.7-2.081 2.384 2.384 0 0 0-1.891-.8 3.265 3.265 0 0 0-2.181.825 5.323 5.323 0 0 0-1.495 2.292 9.561 9.561 0 0 0-.53 3.264 3.289 3.289 0 0 0 .708 2.259 2.58 2.58 0 0 0 2.036.8 3.074 3.074 0 0 0 2.086-.815 5.316 5.316 0 0 0 1.445-2.315 10.481 10.481 0 0 0 .523-3.429z" class="prefix__cls-1" data-name="Path 63" transform="translate(865.614 -451.41)"/>
        <path id="prefix__Path_64" d="M-451.24 456.714l-1.673 7.753a8.363 8.363 0 0 0-.2 1.551 1.43 1.43 0 0 0 1.64 1.6 3.313 3.313 0 0 0 1.93-.669 5.948 5.948 0 0 0 1.674-1.919 10.306 10.306 0 0 0 1.1-3.012l1.115-5.3h1.852l-2.577 12.227h-1.551l.246-2.265h-.135a7.317 7.317 0 0 1-2.086 1.941 4.2 4.2 0 0 1-2.053.547 3.118 3.118 0 0 1-2.242-.775 2.913 2.913 0 0 1-.815-2.215 10.412 10.412 0 0 1 .246-1.919l1.629-7.541z" class="prefix__cls-1" data-name="Path 64" transform="translate(861.531 -451.459)"/>
        <path id="prefix__Path_65" d="M-434.612 466.752a6.013 6.013 0 0 0 1.607-.291v1.439a5.138 5.138 0 0 1-.937.268 4.785 4.785 0 0 1-.892.112 3.1 3.1 0 0 1-2.136-.664 2.522 2.522 0 0 1-.742-1.98 8.081 8.081 0 0 1 .2-1.673l1.417-6.716h-1.919l.156-.815 2.064-.87 1.395-2.543h1.093l-.613 2.812h3.057l-.291 1.417h-3.047l-1.439 6.738a7.918 7.918 0 0 0-.2 1.472 1.322 1.322 0 0 0 .323.959 1.2 1.2 0 0 0 .904.335z" class="prefix__cls-1" data-name="Path 65" transform="translate(857.465 -450.575)"/>
        <path id="prefix__Path_66" d="M-417.073 466.752a6.009 6.009 0 0 0 1.606-.291v1.439a5.128 5.128 0 0 1-.937.268 4.785 4.785 0 0 1-.892.112 3.1 3.1 0 0 1-2.137-.664 2.521 2.521 0 0 1-.742-1.98 8.077 8.077 0 0 1 .2-1.673l1.417-6.716h-1.919l.157-.815 2.063-.87 1.4-2.543h1.093l-.614 2.812h3.057l-.29 1.417h-3.045l-1.439 6.738a7.93 7.93 0 0 0-.2 1.472 1.326 1.326 0 0 0 .323.959 1.2 1.2 0 0 0 .899.335z" class="prefix__cls-1" data-name="Path 66" transform="translate(853.27 -450.575)"/>
        <path id="prefix__Path_67" d="M-404.541 456.508a4.465 4.465 0 0 1 3.347 1.255 4.726 4.726 0 0 1 1.227 3.453 9.9 9.9 0 0 1-.8 3.961 6.847 6.847 0 0 1-2.175 2.878 5.083 5.083 0 0 1-3.1 1.016 4.447 4.447 0 0 1-3.358-1.261 4.759 4.759 0 0 1-1.216-3.447 9.871 9.871 0 0 1 .814-3.989 6.76 6.76 0 0 1 2.2-2.867 5.116 5.116 0 0 1 3.061-.999zm2.633 4.451a3.047 3.047 0 0 0-.7-2.081 2.382 2.382 0 0 0-1.891-.8 3.262 3.262 0 0 0-2.18.825 5.317 5.317 0 0 0-1.5 2.292 9.562 9.562 0 0 0-.53 3.264 3.289 3.289 0 0 0 .708 2.259 2.581 2.581 0 0 0 2.037.8 3.077 3.077 0 0 0 2.086-.815 5.322 5.322 0 0 0 1.445-2.315 10.48 10.48 0 0 0 .525-3.429z" class="prefix__cls-1" data-name="Path 67" transform="translate(850.913 -451.41)"/>
    </g>
    <g id="prefix__Group_6" data-name="Group 6" transform="translate(66.263 34.399)">
        <path id="prefix__Path_68" d="M-888.21 518.266h-4.5l2.047-9.754a7.926 7.926 0 0 0 .239-1.778q0-1.837-1.614-1.837a3.1 3.1 0 0 0-2.495 1.7 13.942 13.942 0 0 0-1.762 4.75l-1.465 6.916h-4.5l4.93-23.244h4.5q-.583 2.7-.9 4.152t-1.284 4.616h.119a8.027 8.027 0 0 1 2.062-1.845 4.937 4.937 0 0 1 2.629-.695 4.081 4.081 0 0 1 3.19 1.248 5.135 5.135 0 0 1 1.127 3.562 13.189 13.189 0 0 1-.344 2.689z" class="prefix__cls-2" data-name="Path 68" transform="translate(902.252 -495.022)"/>
        <path id="prefix__Path_69" d="M-861.716 509.827a13.959 13.959 0 0 1-1.053 5.587 8.46 8.46 0 0 1-3.04 3.772 8.257 8.257 0 0 1-4.721 1.337 6.258 6.258 0 0 1-4.653-1.755 6.341 6.341 0 0 1-1.74-4.669 14.246 14.246 0 0 1 1.067-5.669 8.635 8.635 0 0 1 3.085-3.853 8.211 8.211 0 0 1 4.721-1.367 6.14 6.14 0 0 1 4.631 1.763 6.694 6.694 0 0 1 1.703 4.854zm-4.526 0q0-2.942-2.136-2.943a2.741 2.741 0 0 0-2.009.911 6.679 6.679 0 0 0-1.449 2.674 11.909 11.909 0 0 0-.56 3.629q0 2.764 2.24 2.764a2.755 2.755 0 0 0 2.017-.918 6.185 6.185 0 0 0 1.4-2.555 12.137 12.137 0 0 0 .497-3.562z" class="prefix__cls-2" data-name="Path 69" transform="translate(896.193 -496.981)"/>
        <path id="prefix__Path_70" d="M-847.048 515.874a7.425 7.425 0 0 0 2.42-.522v3.36a9.149 9.149 0 0 1-3.974.792 4.842 4.842 0 0 1-3.294-.942 3.712 3.712 0 0 1-1.053-2.912 8.907 8.907 0 0 1 .18-1.673l1.718-8.051h-2.271l.434-2.2 2.928-1.255 1.972-3.526h2.9l-.732 3.555h4.228l-.747 3.421h-4.212l-1.718 8.051a4.065 4.065 0 0 0-.09.791q-.003 1.112 1.311 1.111z" class="prefix__cls-2" data-name="Path 70" transform="translate(890.548 -495.961)"/>
        <path id="prefix__Path_71" d="M-826.183 514.712a5.217 5.217 0 0 1-1.859 4.309 8.026 8.026 0 0 1-5.177 1.5A15.208 15.208 0 0 1-836 520.3a8.263 8.263 0 0 1-2.218-.748v-3.7a9.484 9.484 0 0 0 4.766 1.344 3.581 3.581 0 0 0 1.957-.485 1.5 1.5 0 0 0 .762-1.321 1.532 1.532 0 0 0-.552-1.151 11.006 11.006 0 0 0-1.957-1.284 7.693 7.693 0 0 1-2.524-2.024 4 4 0 0 1-.717-2.383 4.872 4.872 0 0 1 1.651-3.936 7.1 7.1 0 0 1 4.712-1.4 10.526 10.526 0 0 1 5.423 1.419l-1.479 3.212a7.605 7.605 0 0 0-3.854-1.255 2.278 2.278 0 0 0-1.374.381 1.2 1.2 0 0 0-.523 1.023 1.353 1.353 0 0 0 .479 1.023 8.749 8.749 0 0 0 1.792 1.113 7.522 7.522 0 0 1 2.656 2.045 4.145 4.145 0 0 1 .817 2.539z" class="prefix__cls-2" data-name="Path 71" transform="translate(886.936 -496.981)"/>
        <path id="prefix__Path_72" d="M-813.16 520.523a4.174 4.174 0 0 1-3.459-1.591 7.011 7.011 0 0 1-1.262-4.459 14.994 14.994 0 0 1 1.076-5.639 10.319 10.319 0 0 1 2.823-4.153 5.827 5.827 0 0 1 3.839-1.471 4.8 4.8 0 0 1 2.5.627 4.2 4.2 0 0 1 1.636 1.823h.119l.851-2.136h3.466l-3.555 16.7h-3.421l.209-2.165h-.06a5.976 5.976 0 0 1-4.762 2.464zm1.763-3.63a2.764 2.764 0 0 0 1.987-1 7.24 7.24 0 0 0 1.538-2.711 11.976 11.976 0 0 0 .584-3.876 2.663 2.663 0 0 0-.575-1.755 1.875 1.875 0 0 0-1.516-.695 2.581 2.581 0 0 0-1.935 1.076 7.912 7.912 0 0 0-1.464 2.838 11.772 11.772 0 0 0-.545 3.5 3.23 3.23 0 0 0 .5 1.972 1.685 1.685 0 0 0 1.423.651z" class="prefix__cls-2" data-name="Path 72" transform="translate(882.07 -496.981)"/>
        <path id="prefix__Path_73" d="M-791.316 503.622h4.5l-2.047 9.755a7.92 7.92 0 0 0-.239 1.777q0 1.838 1.614 1.837a3.1 3.1 0 0 0 2.495-1.7 13.964 13.964 0 0 0 1.763-4.75l1.464-6.916h4.5l-3.54 16.7h-3.436l.313-3.092h-.09q-2.166 3.39-5.3 3.391a3.985 3.985 0 0 1-3.152-1.232 5.21 5.21 0 0 1-1.09-3.563 16.4 16.4 0 0 1 .358-3.182z" class="prefix__cls-2" data-name="Path 73" transform="translate(876.255 -497.079)"/>
        <path id="prefix__Path_74" d="M-763.483 520.523a6.234 6.234 0 0 1-4.608-1.606 6.131 6.131 0 0 1-1.606-4.534 14.449 14.449 0 0 1 1.113-5.758 9.147 9.147 0 0 1 3.129-4 7.83 7.83 0 0 1 4.6-1.411 10.937 10.937 0 0 1 4.9 1.076l-1.375 3.421q-.807-.343-1.584-.6a5.645 5.645 0 0 0-1.762-.254 3.276 3.276 0 0 0-2.293.956 6.338 6.338 0 0 0-1.6 2.621 10.889 10.889 0 0 0-.575 3.578 3.044 3.044 0 0 0 .68 2.158 2.463 2.463 0 0 0 1.889.724 6.149 6.149 0 0 0 2.107-.351 17.785 17.785 0 0 0 2-.873v3.675a10.72 10.72 0 0 1-5.015 1.178z" class="prefix__cls-2" data-name="Path 74" transform="translate(870.544 -496.981)"/>
        <path id="prefix__Path_75" d="M-743.675 520.523a6.684 6.684 0 0 1-4.87-1.688 6.344 6.344 0 0 1-1.733-4.766 12.778 12.778 0 0 1 1.232-5.639 9.211 9.211 0 0 1 3.338-3.883 8.7 8.7 0 0 1 4.766-1.338 6.305 6.305 0 0 1 4.123 1.218 4.09 4.09 0 0 1 1.479 3.338 4.779 4.779 0 0 1-2.495 4.31 13.807 13.807 0 0 1-7.126 1.516h-.762l-.03.314v.3a2.926 2.926 0 0 0 .77 2.144 2.948 2.948 0 0 0 2.2.784 9.123 9.123 0 0 0 2.36-.284 15.644 15.644 0 0 0 2.57-1v3.391a12.853 12.853 0 0 1-5.822 1.283zm2.45-14.072a3.444 3.444 0 0 0-2.479 1.2 5.761 5.761 0 0 0-1.524 2.912h.672a7.438 7.438 0 0 0 3.608-.724 2.193 2.193 0 0 0 1.293-1.964q-.002-1.423-1.57-1.423z" class="prefix__cls-2" data-name="Path 75" transform="translate(865.899 -496.981)"/>
        <path id="prefix__Path_76" d="M-703.321 506.16a11.948 11.948 0 0 1-.956 4.8 8.171 8.171 0 0 1-2.651 3.45 6.284 6.284 0 0 1-3.8 1.24 3.751 3.751 0 0 1-2.158-.575 2.577 2.577 0 0 1-1.083-1.62h-.09a4.909 4.909 0 0 1-1.688 1.673 4.45 4.45 0 0 1-2.2.523 3.761 3.761 0 0 1-2.958-1.187 4.984 4.984 0 0 1-1.061-3.429 8.812 8.812 0 0 1 1.008-4.13 7.812 7.812 0 0 1 2.8-3.063 7.362 7.362 0 0 1 4-1.128 13.467 13.467 0 0 1 4.885.822l-1.584 6.274-.284 1.143a4.015 4.015 0 0 0-.119.964q0 1.015.867 1.016a2.5 2.5 0 0 0 1.853-.956 6.927 6.927 0 0 0 1.382-2.555 10.373 10.373 0 0 0 .515-3.2 6.243 6.243 0 0 0-1.844-4.862 7.717 7.717 0 0 0-5.371-1.681 10.784 10.784 0 0 0-5.474 1.4 9.772 9.772 0 0 0-3.81 3.974 12.283 12.283 0 0 0-1.366 5.856 7.8 7.8 0 0 0 2 5.684 7.482 7.482 0 0 0 5.617 2.054 17.107 17.107 0 0 0 3.279-.3 19.794 19.794 0 0 0 3.309-.986v2.778a18.91 18.91 0 0 1-6.947 1.345 11.87 11.87 0 0 1-5.646-1.277 8.767 8.767 0 0 1-3.675-3.608 11.035 11.035 0 0 1-1.269-5.363 15.093 15.093 0 0 1 1.8-7.425 12.856 12.856 0 0 1 5.124-5.1 15.06 15.06 0 0 1 7.432-1.845 10.717 10.717 0 0 1 7.454 2.442 8.76 8.76 0 0 1 2.709 6.852zm-11.024-.732a3.353 3.353 0 0 0-2.174.769 5.216 5.216 0 0 0-1.494 2.047 6.576 6.576 0 0 0-.545 2.606 2.733 2.733 0 0 0 .367 1.524 1.173 1.173 0 0 0 1.038.553q2.107 0 3.182-4.034l.851-3.316a4.611 4.611 0 0 0-1.225-.149z" class="prefix__cls-2" data-name="Path 76" transform="translate(860.53 -495.464)"/>
        <path id="prefix__Path_77" d="M-680.453 520.224h-4.5l2.046-9.754a7.919 7.919 0 0 0 .239-1.778q0-1.837-1.613-1.837a3.1 3.1 0 0 0-2.495 1.7 13.944 13.944 0 0 0-1.763 4.75l-1.461 6.919h-4.5l3.541-16.7h3.436l-.313 3.093h.089q2.182-3.406 5.3-3.406a4.081 4.081 0 0 1 3.189 1.248 5.132 5.132 0 0 1 1.127 3.562 13.18 13.18 0 0 1-.343 2.689z" class="prefix__cls-2" data-name="Path 77" transform="translate(852.555 -496.981)"/>
        <path id="prefix__Path_78" d="M-666.5 503.622h4.5l-2.047 9.755a7.87 7.87 0 0 0-.239 1.777q0 1.838 1.613 1.837a3.1 3.1 0 0 0 2.495-1.7 13.96 13.96 0 0 0 1.763-4.75l1.464-6.916h4.5l-3.54 16.7h-3.436l.314-3.092h-.091q-2.165 3.39-5.3 3.391a3.987 3.987 0 0 1-3.152-1.232 5.214 5.214 0 0 1-1.09-3.563 16.46 16.46 0 0 1 .358-3.182z" class="prefix__cls-2" data-name="Path 78" transform="translate(846.397 -497.079)"/>
        <path id="prefix__Path_79" d="M-638.525 515.874a7.425 7.425 0 0 0 2.42-.522v3.36a9.149 9.149 0 0 1-3.974.792 4.84 4.84 0 0 1-3.293-.942 3.711 3.711 0 0 1-1.054-2.912 8.9 8.9 0 0 1 .179-1.673l1.718-8.051h-2.27l.433-2.2 2.928-1.255 1.971-3.526h2.9l-.732 3.555h4.227l-.747 3.421h-4.213l-1.718 8.051a4.123 4.123 0 0 0-.09.791q.001 1.112 1.315 1.111z" class="prefix__cls-2" data-name="Path 79" transform="translate(840.667 -495.961)"/>
        <path id="prefix__Path_80" d="M-623.663 520.523a4.174 4.174 0 0 1-3.458-1.591 7.011 7.011 0 0 1-1.262-4.459 15 15 0 0 1 1.076-5.639 10.319 10.319 0 0 1 2.823-4.153 5.827 5.827 0 0 1 3.839-1.471 4.8 4.8 0 0 1 2.5.627 4.2 4.2 0 0 1 1.636 1.823h.119l.851-2.136h3.466l-3.555 16.7h-3.421l.209-2.165h-.06a5.976 5.976 0 0 1-4.763 2.464zm1.763-3.63a2.767 2.767 0 0 0 1.987-1 7.249 7.249 0 0 0 1.538-2.711 11.978 11.978 0 0 0 .584-3.876 2.663 2.663 0 0 0-.575-1.755 1.875 1.875 0 0 0-1.516-.695 2.581 2.581 0 0 0-1.935 1.076 7.914 7.914 0 0 0-1.464 2.838 11.772 11.772 0 0 0-.546 3.5 3.23 3.23 0 0 0 .5 1.972 1.685 1.685 0 0 0 1.427.651z" class="prefix__cls-2" data-name="Path 80" transform="translate(836.741 -496.981)"/>
        <path id="prefix__Path_81" d="M-592.338 501.565h5.138l-7.438 7.53 4.257 9.171h-5.019l-2.734-6.274-1.792 1.076-1.105 5.2h-4.5l4.929-23.244h4.5l-2.211 10.367q-.119.614-.433 1.748l-.418 1.524h.06z" class="prefix__cls-2" data-name="Path 81" transform="translate(831.273 -495.022)"/>
        <path id="prefix__Path_82" d="M-578.984 503.622h4.5l-2.047 9.755a7.871 7.871 0 0 0-.239 1.777q0 1.838 1.613 1.837a3.1 3.1 0 0 0 2.495-1.7 13.961 13.961 0 0 0 1.764-4.75l1.463-6.916h4.5l-3.541 16.7h-3.436l.314-3.092h-.09q-2.166 3.39-5.3 3.391a3.987 3.987 0 0 1-3.152-1.232 5.214 5.214 0 0 1-1.09-3.563 16.46 16.46 0 0 1 .358-3.182z" class="prefix__cls-2" data-name="Path 82" transform="translate(825.463 -497.079)"/>
        <path id="prefix__Path_83" d="M-558.64 522.386a2.923 2.923 0 0 1 .8-2.152 3.023 3.023 0 0 1 2.248-.806 2.3 2.3 0 0 1 1.628.568 2.071 2.071 0 0 1 .613 1.6 2.821 2.821 0 0 1-.822 2.107 2.939 2.939 0 0 1-2.152.807 2.429 2.429 0 0 1-1.7-.56 2.009 2.009 0 0 1-.615-1.564z" class="prefix__cls-2" data-name="Path 83" transform="translate(820.057 -500.86)"/>
        <path id="prefix__Path_84" d="M-532.9 520.224h-4.5l2.047-9.754a7.925 7.925 0 0 0 .239-1.778q0-1.837-1.613-1.837a3.1 3.1 0 0 0-2.495 1.7 13.944 13.944 0 0 0-1.763 4.75l-1.464 6.916h-4.5l3.54-16.7h3.436l-.313 3.093h.09q2.181-3.406 5.3-3.406a4.081 4.081 0 0 1 3.189 1.248 5.131 5.131 0 0 1 1.128 3.562 13.184 13.184 0 0 1-.344 2.689z" class="prefix__cls-2" data-name="Path 84" transform="translate(817.258 -496.981)"/>
        <path id="prefix__Path_85" d="M-515.006 520.523a6.684 6.684 0 0 1-4.87-1.688 6.343 6.343 0 0 1-1.733-4.766 12.778 12.778 0 0 1 1.232-5.639 9.212 9.212 0 0 1 3.338-3.883 8.7 8.7 0 0 1 4.766-1.338 6.305 6.305 0 0 1 4.123 1.218 4.089 4.089 0 0 1 1.479 3.338 4.778 4.778 0 0 1-2.495 4.31 13.807 13.807 0 0 1-7.126 1.516h-.761l-.03.314v.3a2.926 2.926 0 0 0 .77 2.144 2.948 2.948 0 0 0 2.2.784 9.122 9.122 0 0 0 2.36-.284 15.648 15.648 0 0 0 2.57-1v3.391a12.853 12.853 0 0 1-5.823 1.283zm2.45-14.072a3.444 3.444 0 0 0-2.479 1.2 5.761 5.761 0 0 0-1.524 2.912h.672a7.439 7.439 0 0 0 3.608-.724 2.193 2.193 0 0 0 1.292-1.964q-.001-1.423-1.569-1.423z" class="prefix__cls-2" data-name="Path 85" transform="translate(811.199 -496.981)"/>
        <path id="prefix__Path_86" d="M-492.853 515.874a7.425 7.425 0 0 0 2.42-.522v3.36a9.15 9.15 0 0 1-3.974.792 4.841 4.841 0 0 1-3.294-.942 3.711 3.711 0 0 1-1.053-2.912 8.837 8.837 0 0 1 .18-1.673l1.717-8.051h-2.27l.433-2.2 2.928-1.255 1.972-3.526h2.9l-.732 3.555h4.228l-.747 3.421h-4.213l-1.718 8.051a4.065 4.065 0 0 0-.09.791q-.001 1.112 1.313 1.111z" class="prefix__cls-2" data-name="Path 86" transform="translate(805.821 -495.961)"/>
    </g>
</svg>
